<svg width="256" height="256" viewBox="0 0 256 256" fill="none" xmlns="http://www.w3.org/2000/svg">
<path d="M56.8008 127.7C58.9008 127.6 60.4008 127.5 61.3008 127.5V123.1H57.0008C56.9008 124.1 56.9008 125.6 56.8008 127.7Z" fill="#9500FF"/>
<path d="M253.4 104.9C231.1 45.1998 120 24.1998 99.0002 23.0998C76.5002 21.9998 54.4002 26.7998 37.0002 41.6998C15.1002 60.2998 3.40018 89.1998 3.00018 117.8C2.50018 157.6 25.5002 187.9 63.0002 199.9C78.1002 204.7 93.7002 206.6 109.4 208.6C95.5002 218.1 78.4002 224.8 58.2002 227.1C90.7002 237.9 128.4 233.7 161.1 216C170.5 217.1 179.9 217.7 189.3 217.5C207.5 217.1 228.5 213.2 239.5 197.1C250.4 181.3 260.1 122.9 253.4 104.9ZM83.8002 127.8C84.7002 128.6 85.6002 130.1 86.3002 132.5C87.0002 134.6 87.3002 136.5 87.3002 138C87.3002 139.9 86.2002 140.9 83.9002 140.9C83.1002 140.9 81.9002 140.8 80.4002 140.5C78.9002 140.2 78.0002 140.1 77.6002 140.1H73.3002C73.2002 144.7 73.0002 149.6 72.8002 154.9C72.5002 156.7 71.7002 157.7 70.5002 157.8C69.4002 158 67.6002 157.4 65.0002 156C62.4002 154.6 60.9002 153.6 60.4002 152.9C60.1002 152.4 59.9002 151.8 59.9002 151.2C59.9002 150.6 60.1002 149.7 60.5002 148.7C60.9002 147.7 61.1002 147 61.1002 146.8C61.2002 146 61.2002 143.7 61.4002 140.1H56.5002C56.4002 144.1 56.4002 148.2 56.3002 152.4C56.1002 153.2 55.6002 153.9 54.8002 154.6C54.0002 155.2 53.1002 155.5 52.1002 155.5C51.4002 155.4 49.6002 154.4 46.9002 152.4C44.2002 150.4 42.8002 149 42.8002 148.3C42.7002 147.7 43.0002 146.9 43.5002 146.1C44.0002 145.3 44.3002 144.6 44.4002 144.1V140.1C43.0002 140.1 41.7002 140.4 40.6002 141C39.5002 141.6 38.7002 141.8 38.3002 141.8C37.6002 141.7 36.2002 140.4 34.2002 137.7C32.2002 135 31.2002 133.3 31.1002 132.4C31.0002 131.4 31.3002 130.5 32.0002 129.8C32.6002 129 33.4002 128.5 34.2002 128.4C37.2002 128.4 40.6002 128.4 44.5002 128.3V123.3C42.0002 123.3 40.4002 123.3 39.8002 123.4C39.2002 123.5 38.5002 123.7 37.7002 124.1C36.9002 124.5 36.2002 124.7 35.6002 124.6C34.3002 124.5 32.8002 123.3 31.2002 121.1C29.5002 118.9 28.7002 116.8 28.7002 115C28.7002 113.2 29.7002 112 31.7002 111.6C32.3002 111.5 36.6002 111.4 44.5002 111.3V108.8C44.5002 108.5 44.4002 107.5 44.1002 106.1C43.8002 104.6 43.7002 103.5 43.7002 102.6C43.7002 100.4 44.7002 99.1998 46.6002 99.1998C48.2002 99.1998 50.0002 99.4998 52.1002 100.2C54.5002 100.9 56.0002 101.8 56.8002 102.7C57.1002 103.2 57.2002 106 57.2002 111.1H61.3002C61.4002 104.3 61.7002 100.6 62.1002 99.9998C62.5002 99.3998 63.4002 99.0998 64.8002 99.0998C67.4002 99.0998 70.5002 99.9998 74.0002 101.8C74.6002 102.1 74.9002 102.6 74.9002 103.4C74.9002 103.9 74.7002 104.7 74.3002 105.9C73.9002 107 73.7002 107.7 73.7002 108V111C75.7002 110.9 77.2002 110.9 78.5002 110.9C78.8002 110.9 79.5002 110.7 80.7002 110.3C81.9002 109.9 82.7002 109.7 83.3002 109.7C84.0002 109.7 84.6002 110 84.9002 110.6C86.7002 114.1 87.6002 117.2 87.6002 119.8C87.6002 121.2 87.3002 122.2 86.6002 122.7C86.1002 123 81.9002 123.2 73.8002 123.2C73.7002 124.2 73.7002 125.6 73.7002 127.4C79.9002 127.3 83.4002 127.5 83.8002 127.8ZM107.1 160C106.4 160.8 105.9 161.4 105.7 161.9C105.3 163.1 104.9 164.2 104.5 165.4C103.9 167.2 103.1 168 102.1 167.7C99.7002 167.2 96.5002 164.9 92.6002 160.9C92.3002 160.6 92.2002 160.3 92.3002 160C92.4002 159.8 92.5002 159.5 92.6002 159.3C93.0002 158.3 93.4002 157.2 93.9002 156.2C94.4002 154.8 94.6002 153.6 94.6002 152.5C94.5002 151.8 94.9002 151.1 95.7002 150.6C96.5002 150.1 97.3002 149.9 98.2002 149.9C99.5002 149.9 101.4 150.9 103.7 152.8C106.1 154.7 107.5 156.2 107.9 157.3C108 157.5 108.1 157.8 108.1 158C108.2 158.6 107.8 159.3 107.1 160ZM113.5 132.8C108.9 136.5 105.8 139.6 104.3 142C103.1 143.8 102.2 144.7 101.4 144.5C99.4002 144.1 96.6002 141.6 92.8002 137.2C92.6002 137 92.5002 136.7 92.5002 136.3C92.5002 135.3 93.0002 134.1 93.9002 132.9C95.1002 131.4 98.4002 128.3 104 123.6C109.6 118.9 113.3 115.2 115.4 112.7C118.6 108.7 119.4 105.5 117.6 103.2C116.6 101.9 115 101.2 112.8 101.2C108.8 101.2 103.7 103 97.3002 106.6C97.2002 106.7 97.0002 106.7 96.8002 106.7C95.9002 106.7 94.6002 105.7 92.9002 103.8C91.5002 102.2 90.4002 100.7 89.4002 99.0998C88.9002 98.3998 89.1002 97.4998 89.9002 96.4998C90.7002 95.4998 92.9002 94.2998 96.7002 92.8998C101.1 91.2998 105.1 90.4998 108.9 90.4998C112.1 90.4998 114.8 91.0998 116.9 92.3998C123.1 96.0998 126.5 102.1 127.3 110.5C127.7 115.2 126.4 119.5 123.4 123.4C121.7 125.7 118.4 128.8 113.5 132.8ZM189.3 139.3C185.7 144.5 180.9 147.1 175 147.1C168.9 147.1 165.1 143.4 163.7 136.1C161.2 141 159.3 144.4 157.8 146.2C155 149.8 152.1 151.6 149 151.6C141.9 151.6 138.4 147.3 138.4 138.8C138.4 132.6 140.2 126.2 143.8 119.6C147.4 113 151.7 108.7 156.8 106.6C157.5 106.3 158.2 106.2 158.8 106.2C161.2 106.2 163 108 164.2 111.7C164.4 112.3 163.8 112.8 162.4 113C160.8 113.3 159.9 113.7 159.6 114.4C156.4 116.1 153.8 119.4 151.6 124.2C149.7 128.5 148.7 132.3 148.7 135.8C148.7 138.5 149.4 139.9 150.8 139.9C152.5 139.9 154.2 137.7 155.7 133.2C157.1 129.2 157.7 126.2 157.5 124.2C157.2 123.2 157 121.8 157 119.8C157.4 117.7 159.1 116.6 162.1 116.6C164.3 116.6 166.3 117.1 168 118.2C170.1 119.5 171.4 123.1 171.9 129C172.3 134.3 173.3 136.9 175 136.9C177.8 136.9 180.2 135.2 182.2 131.9C184.2 128.6 185.2 124.7 185.2 120.4C185.2 115.3 183.6 111 180.4 107.5C176.8 103.2 171.4 100.8 164.2 100.2C156 99.3998 148.8 103 142.5 110.9C136.7 118.4 133.9 126.5 133.9 135.3C133.9 141.1 135.5 145.8 138.6 149.4C142 153.3 147 155.3 153.5 155.3C156.6 155.3 160 154.2 164 152C164.7 151.8 165.7 151.2 166.8 150.2C167.9 149.2 169 148.7 170 148.7C172.2 148.7 173.1 151.1 172.5 156C172.3 158.2 171.9 159.7 171.2 160.3C170.5 160.9 169 161.3 166.7 161.6C161.5 163.6 156.4 164.5 151.5 164.5C144 164.5 138 162.2 133.5 157.7C128.1 152.2 125.5 143.7 125.5 132.3C125.5 121.2 129.4 111.6 137.3 103.4C145.2 95.1998 154.3 90.9998 164.6 90.9998C174.4 90.9998 182.1 94.2998 187.6 100.8C192.4 106.3 194.8 113.2 194.8 121.5C194.6 128.4 192.8 134.4 189.3 139.3ZM201.7 130.4C202.4 128.4 202.7 127.3 202.7 127.3V94.5998C202.7 93.0998 203.6 92.0998 205.3 91.4998C205.6 91.3998 206.1 91.2998 206.8 91.2998C208.4 91.2998 210.3 91.5998 212.3 92.2998C214.4 92.9998 215.7 93.6998 216.2 94.4998C216.3 94.6998 216.4 96.1998 216.4 99.1998V134.4C216.4 134.7 216.5 135.3 216.6 135.9C216.7 136.6 216.8 137.1 216.8 137.5C216.7 139.6 216.1 140.8 215.2 141C214.9 141.1 214.6 141.1 214.3 141.1C212.6 141.1 210.5 140.4 208 139.1C205.5 137.8 203.4 136.2 201.8 134.3C201.1 133.8 201.1 132.4 201.7 130.4ZM216.8 154.4C216.6 157.4 216.5 159.2 216.5 159.9C216.5 162.2 216.4 164 216.2 165.3C216 166.6 215.2 167.3 214 167.5C213.3 167.7 211.3 167.1 208 165.8C204.5 164.4 202.5 163.1 201.8 162.1C201.4 161.5 201.5 160.4 202.2 159C202.5 158.4 202.7 157.3 202.8 155.8C202.7 154.5 202.7 152.1 202.8 148.5C203 146.4 203.9 145.4 205.4 145.5C207 145.6 209.3 146.3 212.1 147.4C215 148.6 216.5 149.5 216.8 150.1C216.9 150.7 216.9 152.1 216.8 154.4Z" fill="#9500FF"/>
<path d="M86.4 122.6C87.1 122.1 87.4 121.1 87.4 119.7C87.4 117.1 86.5 114 84.7 110.5C84.4 109.9 83.9 109.6 83.1 109.6C82.5 109.6 81.7 109.8 80.5 110.2C79.3 110.6 78.6 110.8 78.3 110.8C77.1 110.8 75.5 110.8 73.5 110.9V107.9C73.5 107.6 73.7 106.9 74.1 105.8C74.5 104.7 74.7 103.9 74.7 103.3C74.7 102.5 74.4 101.9 73.8 101.7C70.2 99.9 67.1 99 64.6 99C63.2 99 62.3 99.3 61.9 99.9C61.5 100.5 61.2 104.2 61.1 111H57C57 105.9 56.9 103.1 56.6 102.6C55.9 101.7 54.3 100.8 51.9 100.1C49.8 99.4 47.9 99.1 46.4 99.1C44.5 99.1 43.5 100.2 43.5 102.5C43.5 103.4 43.6 104.5 43.9 106C44.2 107.5 44.3 108.4 44.3 108.7V111.2C36.4 111.3 32.1 111.4 31.5 111.5C29.5 111.9 28.5 113 28.5 114.9C28.5 116.7 29.3 118.8 31 121C32.7 123.2 34.2 124.4 35.4 124.5C36 124.6 36.7 124.4 37.5 124C38.3 123.6 39 123.4 39.6 123.3C40.2 123.2 41.7 123.2 44.3 123.2V128.2C40.4 128.3 37 128.3 34 128.3C33.2 128.5 32.5 128.9 31.8 129.7C31.2 130.5 30.9 131.4 30.9 132.3C31 133.2 32 134.9 34 137.6C36 140.3 37.4 141.6 38.1 141.7C38.5 141.8 39.3 141.5 40.4 140.9C41.5 140.3 42.8 140 44.2 140V144C44.1 144.5 43.9 145.2 43.3 146C42.8 146.8 42.6 147.5 42.6 148.2C42.7 149 44 150.3 46.7 152.3C49.4 154.3 51.1 155.3 51.9 155.4C52.9 155.5 53.8 155.2 54.6 154.5C55.4 153.9 55.9 153.1 56.1 152.3C56.2 148.1 56.2 144 56.3 140H61.2C61.1 143.7 61 145.9 60.9 146.7C60.9 147 60.7 147.6 60.3 148.6C59.9 149.6 59.7 150.4 59.7 151.1C59.7 151.8 59.9 152.3 60.2 152.8C60.7 153.5 62.3 154.5 64.8 155.9C67.4 157.3 69.2 157.8 70.3 157.7C71.5 157.5 72.3 156.5 72.6 154.8C72.8 149.5 73 144.6 73.1 140H77.4C77.7 140 78.7 140.1 80.2 140.4C81.7 140.7 82.8 140.8 83.7 140.8C85.9 140.8 87.1 139.8 87.1 137.9C87.1 136.3 86.8 134.5 86.1 132.4C85.4 130 84.5 128.5 83.6 127.7C83.1 127.4 79.7 127.2 73.3 127.2C73.3 125.4 73.3 123.9 73.4 123C81.7 123.1 85.9 122.9 86.4 122.6ZM61.3 127.5C60.4 127.5 58.9 127.6 56.8 127.7C56.9 125.6 57 124.1 57 123.1H61.3V127.5Z" fill="white"/>
<path d="M127.3 110.7C126.6 102.3 123.1 96.2002 116.9 92.6002C114.8 91.3002 112.1 90.7002 108.9 90.7002C105.2 90.7002 101.1 91.5002 96.7004 93.1002C93.0004 94.5002 90.7004 95.7002 89.9004 96.7002C89.1004 97.7002 89.0004 98.5002 89.4004 99.3002C90.3004 100.9 91.5004 102.4 92.9004 104C94.6004 105.9 95.9004 106.9 96.8004 106.9C97.0004 106.9 97.2004 106.9 97.3004 106.8C103.6 103.2 108.8 101.4 112.8 101.4C115 101.4 116.7 102.1 117.6 103.4C119.3 105.7 118.6 108.9 115.4 112.9C113.4 115.4 109.6 119.1 104 123.8C98.4004 128.5 95.1004 131.6 93.9004 133.1C93.0004 134.3 92.5004 135.4 92.5004 136.5C92.5004 136.8 92.6004 137.1 92.8004 137.4C96.5004 141.9 99.4004 144.3 101.4 144.7C102.2 144.9 103.2 144 104.3 142.2C105.9 139.8 108.9 136.7 113.5 133C118.4 129 121.7 125.9 123.3 123.8C126.4 119.6 127.7 115.3 127.3 110.7Z" fill="white"/>
<path d="M103.801 152.9C101.401 151 99.6008 150 98.3008 150C97.4008 150 96.5008 150.2 95.8008 150.7C95.0008 151.2 94.7008 151.8 94.7008 152.6C94.8008 153.7 94.5008 154.9 94.0008 156.3C93.5008 157.3 93.1008 158.4 92.7008 159.4C92.6008 159.6 92.5008 159.9 92.4008 160.1C92.3008 160.4 92.4008 160.7 92.7008 161C96.6008 165 99.8008 167.3 102.201 167.8C103.201 168 104.001 167.3 104.601 165.5C105.001 164.3 105.401 163.1 105.801 162C106.001 161.5 106.401 160.8 107.201 160.1C107.901 159.3 108.301 158.7 108.301 158.2C108.301 158 108.201 157.7 108.101 157.5C107.501 156.4 106.101 154.9 103.801 152.9Z" fill="white"/>
<path d="M164.401 91C154.101 91 145.001 95.1 137.101 103.4C129.201 111.6 125.301 121.3 125.301 132.3C125.301 143.7 128.001 152.2 133.301 157.7C137.801 162.3 143.801 164.5 151.301 164.5C156.301 164.5 161.301 163.5 166.501 161.6C168.901 161.4 170.401 161 171.001 160.3C171.601 159.6 172.101 158.3 172.301 156C172.901 151.2 172.001 148.7 169.801 148.7C168.801 148.7 167.701 149.2 166.601 150.2C165.501 151.2 164.601 151.8 163.801 152C159.901 154.2 156.401 155.3 153.301 155.3C146.801 155.3 141.801 153.3 138.401 149.4C135.301 145.8 133.701 141.1 133.701 135.3C133.701 126.5 136.601 118.3 142.301 110.9C148.601 103 155.801 99.4 164.001 100.2C171.201 100.8 176.601 103.3 180.201 107.5C183.401 111 185.001 115.2 185.001 120.4C185.001 124.7 184.001 128.6 182.001 131.9C180.001 135.2 177.601 136.9 174.801 136.9C173.101 136.9 172.101 134.3 171.701 129C171.201 123.1 169.901 119.5 167.801 118.2C166.101 117.1 164.201 116.6 161.901 116.6C158.901 116.6 157.201 117.7 156.801 119.8C156.901 121.8 157.001 123.2 157.301 124.2C157.501 126.2 156.901 129.2 155.501 133.2C153.901 137.7 152.301 139.9 150.601 139.9C149.201 139.9 148.501 138.5 148.501 135.8C148.501 132.3 149.501 128.5 151.401 124.2C153.601 119.3 156.301 116 159.401 114.4C159.601 113.8 160.601 113.3 162.201 113C163.601 112.8 164.201 112.3 164.001 111.7C162.801 108 161.001 106.2 158.601 106.2C158.001 106.2 157.401 106.3 156.601 106.6C151.601 108.6 147.301 112.9 143.601 119.6C140.001 126.2 138.201 132.6 138.201 138.8C138.201 147.3 141.701 151.6 148.801 151.6C151.901 151.6 154.801 149.8 157.601 146.2C159.001 144.4 161.001 141 163.501 136.1C164.901 143.4 168.701 147.1 174.801 147.1C180.701 147.1 185.501 144.5 189.101 139.3C192.601 134.4 194.401 128.5 194.401 121.5C194.401 113.2 192.001 106.3 187.201 100.8C181.901 94.2 174.301 91 164.401 91Z" fill="white"/>
<path d="M208.001 139.299C210.501 140.599 212.601 141.299 214.301 141.299C214.601 141.299 214.901 141.299 215.201 141.199C216.201 140.999 216.701 139.799 216.801 137.699C216.801 137.299 216.701 136.799 216.601 136.099C216.501 135.399 216.401 134.899 216.401 134.599V99.2994C216.401 96.3994 216.301 94.7994 216.201 94.5994C215.701 93.7994 214.401 92.9994 212.301 92.3994C210.201 91.6994 208.401 91.3994 206.801 91.3994C206.201 91.3994 205.701 91.4994 205.301 91.5994C203.601 92.1994 202.701 93.1994 202.701 94.6994V127.399C202.701 127.499 202.401 128.499 201.701 130.499C201.001 132.499 201.001 133.899 201.701 134.599C203.401 136.299 205.401 137.899 208.001 139.299Z" fill="white"/>
<path d="M212.1 147.399C209.2 146.199 207 145.599 205.4 145.499C203.9 145.399 203 146.499 202.8 148.499C202.7 152.099 202.7 154.499 202.8 155.799C202.7 157.299 202.5 158.399 202.2 158.999C201.5 160.399 201.4 161.499 201.8 162.099C202.5 163.099 204.6 164.399 208 165.799C211.3 167.099 213.3 167.699 214 167.499C215.2 167.299 215.9 166.499 216.2 165.299C216.4 163.999 216.5 162.199 216.5 159.899C216.5 159.199 216.6 157.399 216.8 154.399C217 152.099 217 150.699 216.8 150.199C216.5 149.499 215 148.599 212.1 147.399Z" fill="white"/>
</svg>
